<svg width="30" height="30" viewBox="0 0 30 30" fill="none" xmlns="http://www.w3.org/2000/svg">
<path fill-rule="evenodd" clip-rule="evenodd" d="M24.8951 5.78232C25.1019 5.92024 25.2455 6.13469 25.2943 6.37848C25.343 6.62227 25.293 6.87545 25.1551 7.08232L13.9051 23.9573C13.8281 24.0726 13.7265 24.1694 13.6076 24.2407C13.4887 24.3121 13.3555 24.3561 13.2175 24.3697C13.0795 24.3834 12.9403 24.3662 12.8097 24.3196C12.6792 24.2729 12.5606 24.1978 12.4626 24.0998L4.96255 16.5998C4.79695 16.4221 4.7068 16.187 4.71108 15.9442C4.71537 15.7013 4.81376 15.4696 4.98553 15.2978C5.15729 15.126 5.38902 15.0276 5.6319 15.0234C5.87478 15.0191 6.10983 15.1092 6.28755 15.2748L12.9788 21.9661L23.5951 6.04107C23.7332 5.83442 23.9477 5.69107 24.1915 5.64255C24.4353 5.59403 24.6883 5.6443 24.8951 5.78232Z" fill="black"/>
</svg>
