<svg width="30" height="30" viewBox="0 0 30 30" fill="none" xmlns="http://www.w3.org/2000/svg">
<path fill-rule="evenodd" clip-rule="evenodd" d="M15.6624 20.3498C15.4867 20.5254 15.2484 20.624 14.9999 20.624C14.7515 20.624 14.5132 20.5254 14.3374 20.3498L4.96245 10.9748C4.87034 10.889 4.79646 10.7855 4.74522 10.6705C4.69398 10.5555 4.66643 10.4314 4.66421 10.3055C4.66199 10.1796 4.68514 10.0546 4.73229 9.93785C4.77945 9.82112 4.84963 9.71507 4.93865 9.62605C5.02767 9.53703 5.13372 9.46685 5.25045 9.41969C5.36719 9.37254 5.49222 9.34939 5.6181 9.35161C5.74398 9.35383 5.86812 9.38138 5.98312 9.43262C6.09812 9.48386 6.20162 9.55774 6.28745 9.64985L14.9999 18.3623L23.7124 9.64985C23.7983 9.55774 23.9018 9.48386 24.0168 9.43262C24.1318 9.38138 24.2559 9.35383 24.3818 9.35161C24.5077 9.34939 24.6327 9.37254 24.7494 9.41969C24.8662 9.46685 24.9722 9.53703 25.0612 9.62605C25.1503 9.71507 25.2205 9.82112 25.2676 9.93785C25.3148 10.0546 25.3379 10.1796 25.3357 10.3055C25.3335 10.4314 25.3059 10.5555 25.2547 10.6705C25.2034 10.7855 25.1296 10.889 25.0374 10.9748L15.6624 20.3498Z" fill="black"/>
</svg>
