<svg width="35" height="35" viewBox="0 0 35 35" fill="none" xmlns="http://www.w3.org/2000/svg">
<path fill-rule="evenodd" clip-rule="evenodd" d="M18.9146 5.7896C19.1197 5.58477 19.3977 5.46973 19.6875 5.46973C19.9773 5.46973 20.2553 5.58477 20.4604 5.7896L31.3979 16.7271C31.6027 16.9322 31.7178 17.2102 31.7178 17.5C31.7178 17.7899 31.6027 18.0679 31.3979 18.2729L20.4604 29.2104C20.3603 29.3179 20.2395 29.4041 20.1054 29.4639C19.9712 29.5236 19.8264 29.5558 19.6795 29.5584C19.5327 29.561 19.3868 29.534 19.2506 29.4789C19.1144 29.4239 18.9907 29.3421 18.8868 29.2382C18.783 29.1343 18.7011 29.0106 18.6461 28.8744C18.5911 28.7382 18.564 28.5924 18.5666 28.4455C18.5692 28.2986 18.6014 28.1538 18.6612 28.0196C18.7209 27.8855 18.8071 27.7647 18.9146 27.6646L27.9854 18.5938H4.375C4.08492 18.5938 3.80672 18.4785 3.6016 18.2734C3.39648 18.0683 3.28125 17.7901 3.28125 17.5C3.28125 17.2099 3.39648 16.9317 3.6016 16.7266C3.80672 16.5215 4.08492 16.4063 4.375 16.4063H27.9854L18.9146 7.33543C18.7098 7.13035 18.5947 6.85236 18.5947 6.56251C18.5947 6.27267 18.7098 5.99468 18.9146 5.7896Z" fill="#33FF00"/>
</svg>
