<svg width="100" height="100" viewBox="0 0 100 100" fill="none" xmlns="http://www.w3.org/2000/svg">
<path fill-rule="evenodd" clip-rule="evenodd" d="M6.25 25C6.25 22.5136 7.23772 20.129 8.99587 18.3709C10.754 16.6127 13.1386 15.625 15.625 15.625H84.375C86.8614 15.625 89.246 16.6127 91.0041 18.3709C92.7623 20.129 93.75 22.5136 93.75 25V75C93.75 77.4864 92.7623 79.871 91.0041 81.6291C89.246 83.3873 86.8614 84.375 84.375 84.375H15.625C13.1386 84.375 10.754 83.3873 8.99587 81.6291C7.23772 79.871 6.25 77.4864 6.25 75V25ZM12.5 66.9167V75C12.5 76.725 13.9 78.125 15.625 78.125H84.375C85.2038 78.125 85.9987 77.7958 86.5847 77.2097C87.1708 76.6237 87.5 75.8288 87.5 75V66.9167L76.2917 55.7125C75.1198 54.5421 73.5312 53.8847 71.875 53.8847C70.2187 53.8847 68.6302 54.5421 67.4583 55.7125L63.7917 59.375L67.8333 63.4167C68.1404 63.7028 68.3866 64.0478 68.5574 64.4311C68.7282 64.8144 68.8201 65.2282 68.8275 65.6478C68.8349 66.0674 68.7577 66.4842 68.6005 66.8733C68.4433 67.2624 68.2094 67.6159 67.9127 67.9127C67.6159 68.2094 67.2624 68.4433 66.8733 68.6005C66.4842 68.7577 66.0674 68.8349 65.6478 68.8275C65.2282 68.8201 64.8144 68.7282 64.4311 68.5574C64.0478 68.3866 63.7028 68.1404 63.4167 67.8333L41.9167 46.3375C40.7448 45.1671 39.1563 44.5097 37.5 44.5097C35.8437 44.5097 34.2552 45.1671 33.0833 46.3375L12.5 66.9208V66.9167ZM54.6875 34.375C54.6875 33.1318 55.1814 31.9395 56.0604 31.0604C56.9395 30.1814 58.1318 29.6875 59.375 29.6875C60.6182 29.6875 61.8105 30.1814 62.6896 31.0604C63.5686 31.9395 64.0625 33.1318 64.0625 34.375C64.0625 35.6182 63.5686 36.8105 62.6896 37.6896C61.8105 38.5686 60.6182 39.0625 59.375 39.0625C58.1318 39.0625 56.9395 38.5686 56.0604 37.6896C55.1814 36.8105 54.6875 35.6182 54.6875 34.375Z" fill="black"/>
</svg>
