<svg width="35" height="35" viewBox="0 0 35 35" fill="none" xmlns="http://www.w3.org/2000/svg">
<path fill-rule="evenodd" clip-rule="evenodd" d="M16.0854 29.2104C15.8803 29.4152 15.6023 29.5303 15.3125 29.5303C15.0227 29.5303 14.7447 29.4152 14.5396 29.2104L3.60208 18.2729C3.39726 18.0678 3.28221 17.7898 3.28221 17.5C3.28221 17.2101 3.39726 16.9321 3.60208 16.7271L14.5396 5.78957C14.6397 5.68211 14.7605 5.59592 14.8946 5.53614C15.0288 5.47636 15.1736 5.44421 15.3205 5.44162C15.4673 5.43903 15.6132 5.46605 15.7494 5.52106C15.8856 5.57607 16.0093 5.65794 16.1132 5.7618C16.217 5.86567 16.2989 5.98938 16.3539 6.12557C16.4089 6.26176 16.436 6.40764 16.4334 6.5545C16.4308 6.70135 16.3986 6.84619 16.3388 6.98035C16.2791 7.11452 16.1929 7.23527 16.0854 7.3354L7.01458 16.4062H30.625C30.9151 16.4062 31.1933 16.5215 31.3984 16.7266C31.6035 16.9317 31.7188 17.2099 31.7188 17.5C31.7188 17.7901 31.6035 18.0683 31.3984 18.2734C31.1933 18.4785 30.9151 18.5937 30.625 18.5937H7.01458L16.0854 27.6646C16.2902 27.8696 16.4053 28.1476 16.4053 28.4375C16.4053 28.7273 16.2902 29.0053 16.0854 29.2104Z" fill="#33FF00"/>
</svg>
