<svg width="30" height="30" viewBox="0 0 30 30" fill="none" xmlns="http://www.w3.org/2000/svg">
<path fill-rule="evenodd" clip-rule="evenodd" d="M14.3376 9.65015C14.5133 9.47459 14.7516 9.37598 15.0001 9.37598C15.2485 9.37598 15.4868 9.47459 15.6626 9.65015L25.0376 19.0252C25.1297 19.111 25.2035 19.2145 25.2548 19.3295C25.306 19.4445 25.3336 19.5686 25.3358 19.6945C25.338 19.8204 25.3149 19.9454 25.2677 20.0621C25.2206 20.1789 25.1504 20.2849 25.0614 20.3739C24.9723 20.463 24.8663 20.5332 24.7495 20.5803C24.6328 20.6275 24.5078 20.6506 24.3819 20.6484C24.256 20.6462 24.1319 20.6186 24.0169 20.5674C23.9019 20.5161 23.7984 20.4423 23.7126 20.3502L15.0001 11.6377L6.28755 20.3502C6.20173 20.4423 6.09822 20.5161 5.98323 20.5674C5.86823 20.6186 5.74408 20.6462 5.6182 20.6484C5.49233 20.6506 5.36729 20.6275 5.25056 20.5803C5.13382 20.5332 5.02778 20.463 4.93875 20.3739C4.84973 20.2849 4.77955 20.1789 4.7324 20.0621C4.68525 19.9454 4.66209 19.8204 4.66431 19.6945C4.66653 19.5686 4.69408 19.4445 4.74533 19.3295C4.79656 19.2145 4.87044 19.111 4.96255 19.0252L14.3376 9.65015Z" fill="black"/>
</svg>
